<?xml version="1.0" encoding="UTF-8"?>
<svg viewBox="0 0 772.75122 776.58691" xmlns="http://www.w3.org/2000/svg" xmlns:xlink="http://www.w3.org/1999/xlink">
 <path d="m687.47 391.25-301.09-301.31-301.09 301.31v357.27c0 3.4667 0.72661 6.7648 1.9984 9.7699s3.0555 5.7201 5.329 7.9936 4.9885 4.0572 7.9936 5.329 6.3031 1.9984 9.7699 1.9984h552c3.4667 0 6.7648-0.72656 9.77-1.9984s5.7201-3.0555 7.9936-5.329 4.0572-4.9885 5.329-7.9936 1.9984-6.3032 1.9984-9.7699v-357.27z" fill="#fff" stroke="#000" stroke-width="5.4812"/>
 <path d="m701.68 300.21-288.88-289.32c-3.5576-3.5559-7.8644-6.365-12.434-8.2156s-9.4034-2.743-14.433-2.6645c-4.8372 0.06874-9.6142 1.0387-13.989 2.8866s-8.3467 4.5738-11.768 7.9936l-289.1 289.32v105.25l315.3-315.52 315.3 315.52v-105.25z" fill="#f2f2f2"/>
 <path d="m687.47 286-274.67-275.11c-3.5576-3.5559-7.8644-6.365-12.434-8.2156s-9.4034-2.743-14.433-2.6645c-4.8372 0.06874-9.6142 1.0387-13.989 2.8866s-8.3467 4.5738-11.768 7.9936l-274.89 275.11v105.25l301.09-301.31 301.09 301.31v-105.25z" fill="#b3b3b3"/>
 <path d="m110.35 50.162c-3.4668 0-6.7105 0.78083-9.7157 2.0526s-5.7317 2.9949-8.0052 5.2684-4.065 5.0001-5.3368 8.0052-1.9842 6.3174-1.9842 9.7841v315.97l133.21-133.35v-182.61c0-3.4668-0.71243-6.779-1.9842-9.7841s-3.0633-5.7317-5.3368-8.0052-5-3.9966-8.0052-5.2684-6.3174-2.0526-9.7842-2.0526h-83.063z" fill="#fff" stroke="#000" stroke-width="5.4812"/>
 <path d="m385.93 0.00476c-9.6743 0.13769-18.914 4.0406-25.757 10.88l-349.28 349.5c-14.532 14.532-14.532 38.093 0 52.624s38.093 14.532 52.624 0l322.85-323.07 322.85 323.07c14.532 14.532 38.093 14.532 52.624 0s14.532-38.093 0-52.624l-349.05-349.5c-7.1153-7.1118-16.808-11.037-26.867-10.88z" fill="#fff" stroke="#000" stroke-width="5.4812"/>
 <path d="m531.15 773.61h-289.55v-357.27c0-3.4667 0.72661-6.7648 1.9984-9.77s3.0555-5.7201 5.329-7.9936 4.9884-4.0573 7.9936-5.3291 6.3031-1.9984 9.7699-1.9984h239.36c3.4667 0 6.7647 0.72656 9.7699 1.9984s5.7201 3.0556 7.9936 5.3291 4.0572 4.9884 5.329 7.9936 1.9984 6.3032 1.9984 9.77v357.27z" fill="#fff" stroke="#000" stroke-linecap="round" stroke-linejoin="round" stroke-width="5.4812"/>
 <path d="m509.24 582.43a31.278 31.278 0 1 1 -62.556 0 31.278 31.278 0 1 1 62.556 0z"/>
</svg>
